<svg width="633" height="129" viewBox="0 0 633 129" fill="none" xmlns="http://www.w3.org/2000/svg">
<path fill-rule="evenodd" clip-rule="evenodd" d="M50 0L70.2073 25H57.5V90H42.5V25H29.7927L50 0ZM30.9167 44.1667C33.375 44.1667 35.6491 43.3782 37.5 42.0403V54.4985C28.5958 59.0503 22.5 68.3133 22.5 79C22.5 94.1878 34.8122 106.5 50 106.5C65.1878 106.5 77.5 94.1878 77.5 79C77.5 68.3133 71.4042 59.0503 62.5 54.4985V42.0403C64.3509 43.3782 66.625 44.1667 69.0833 44.1667C73.3643 44.1667 77.0868 41.7755 78.9881 38.2559C83.5297 41.4929 87.5071 45.4703 90.7442 50.0119C87.2245 51.9132 84.8333 55.6357 84.8333 59.9167C84.8333 66.1299 89.8701 71.1667 96.0833 71.1667C97.2061 71.1667 98.2905 71.0022 99.3136 70.696C99.7651 73.3969 100 76.171 100 79C100 81.829 99.7651 84.6032 99.3136 87.304C98.2905 86.9978 97.2061 86.8333 96.0833 86.8333C89.8701 86.8333 84.8333 91.8701 84.8333 98.0833C84.8333 102.364 87.2245 106.087 90.7441 107.988C87.5071 112.53 83.5297 116.507 78.9881 119.744C77.0868 116.225 73.3643 113.833 69.0833 113.833C62.8701 113.833 57.8333 118.87 57.8333 125.083C57.8333 126.206 57.9978 127.29 58.304 128.314C55.6032 128.765 52.829 129 50 129C47.171 129 44.3969 128.765 41.696 128.314C42.0022 127.29 42.1667 126.206 42.1667 125.083C42.1667 118.87 37.1299 113.833 30.9167 113.833C26.6357 113.833 22.9132 116.225 21.0119 119.744C16.4703 116.507 12.4929 112.53 9.25587 107.988C12.7755 106.087 15.1667 102.364 15.1667 98.0833C15.1667 91.8701 10.1299 86.8333 3.91667 86.8333C2.79391 86.8333 1.70956 86.9978 0.686406 87.304C0.234952 84.6032 0 81.829 0 79C0 76.171 0.234952 73.3968 0.686405 70.696C1.70956 71.0022 2.79391 71.1667 3.91667 71.1667C10.1299 71.1667 15.1667 66.1299 15.1667 59.9167C15.1667 55.6357 12.7755 51.9132 9.25586 50.0119C12.4929 45.4703 16.4703 41.4929 21.0119 38.2559C22.9132 41.7755 26.6357 44.1667 30.9167 44.1667Z" fill="url(#paint0_linear)"/>
<path d="M148.214 34.2762V46.745H155.011V56.7294H148.214V81.9012C148.214 83.9012 148.479 85.2762 149.011 86.0262C149.573 86.7762 150.636 87.1512 152.198 87.1512C153.479 87.1512 154.526 87.0419 155.339 86.8231L155.245 97.1356C152.995 97.9794 150.557 98.4012 147.932 98.4012C139.37 98.4012 135.042 93.495 134.948 83.6825V56.7294H129.089V46.745H134.948V34.2762H148.214ZM182.807 98.4012C175.995 98.4012 170.682 96.37 166.87 92.3075C163.057 88.245 161.151 82.4325 161.151 74.87V70.8387C161.151 62.8387 162.901 56.6669 166.401 52.3231C169.901 47.9794 174.917 45.8075 181.448 45.8075C187.823 45.8075 192.62 47.8544 195.839 51.9481C199.057 56.0106 200.698 62.0419 200.761 70.0419V76.5575H174.37C174.557 80.3075 175.386 83.0575 176.854 84.8075C178.323 86.5262 180.589 87.3856 183.651 87.3856C188.089 87.3856 191.792 85.87 194.761 82.8387L199.964 90.8544C198.339 93.1044 195.979 94.9325 192.886 96.3387C189.792 97.7137 186.432 98.4012 182.807 98.4012ZM174.464 67.2762H187.729V66.0575C187.667 63.0262 187.167 60.7294 186.229 59.1669C185.292 57.6044 183.667 56.8231 181.354 56.8231C179.042 56.8231 177.354 57.6512 176.292 59.3075C175.261 60.9637 174.651 63.62 174.464 67.2762ZM226.589 87.3856C230.432 87.3856 232.386 84.8856 232.448 79.8856H244.917C244.854 85.4169 243.151 89.8856 239.807 93.2919C236.464 96.6981 232.151 98.4012 226.87 98.4012C220.339 98.4012 215.354 96.37 211.917 92.3075C208.479 88.245 206.729 82.2606 206.667 74.3544V70.3231C206.667 62.3544 208.354 56.2762 211.729 52.0887C215.136 47.9012 220.151 45.8075 226.776 45.8075C232.37 45.8075 236.776 47.5419 239.995 51.0106C243.214 54.4481 244.854 59.3387 244.917 65.6825H232.448C232.417 62.8387 231.948 60.6512 231.042 59.12C230.136 57.5887 228.636 56.8231 226.542 56.8231C224.229 56.8231 222.573 57.6512 221.573 59.3075C220.573 60.9325 220.042 64.1044 219.979 68.8231V73.9794C219.979 78.1044 220.182 80.995 220.589 82.6512C220.995 84.2762 221.667 85.4794 222.604 86.2606C223.542 87.0106 224.87 87.3856 226.589 87.3856ZM265.354 51.1981C268.229 47.6044 271.761 45.8075 275.948 45.8075C280.573 45.8075 284.089 47.4325 286.495 50.6825C288.901 53.9325 290.12 58.7762 290.151 65.2137V97.4637H276.839V65.3544C276.839 62.3856 276.37 60.245 275.432 58.9325C274.526 57.5887 273.042 56.9169 270.979 56.9169C268.573 56.9169 266.698 58.0262 265.354 60.245V97.4637H252.089V25.4637H265.354V51.1981Z" fill="#00273F"/>
<path d="M339.182 73.6981C339.182 81.6669 337.807 87.7762 335.057 92.0262C332.339 96.2762 328.276 98.4012 322.87 98.4012C318.745 98.4012 315.432 96.7294 312.932 93.3856V116.964H299.667V46.745H311.948L312.417 51.3856C314.948 47.6669 318.401 45.8075 322.776 45.8075C328.182 45.8075 332.245 47.7762 334.964 51.7137C337.714 55.6512 339.12 61.6825 339.182 69.8075V73.6981ZM325.964 70.37C325.964 65.4637 325.417 61.995 324.323 59.9637C323.261 57.9325 321.448 56.9169 318.886 56.9169C316.167 56.9169 314.182 58.0575 312.932 60.3387V84.1044C314.12 86.2919 316.136 87.3856 318.979 87.3856C321.604 87.3856 323.417 86.2762 324.417 84.0575C325.448 81.8387 325.964 78.3856 325.964 73.6981V70.37ZM372.229 59.5419L367.823 59.1669C364.198 59.1669 361.745 60.7606 360.464 63.9481V97.4637H347.151V46.745H359.667L360.042 52.2294C362.136 47.9481 365.026 45.8075 368.714 45.8075C370.214 45.8075 371.432 46.0106 372.37 46.4169L372.229 59.5419ZM375.839 70.4637C375.839 62.7762 377.651 56.745 381.276 52.37C384.901 47.995 389.917 45.8075 396.323 45.8075C402.792 45.8075 407.839 47.995 411.464 52.37C415.089 56.745 416.901 62.8075 416.901 70.5575V73.7919C416.901 81.5106 415.104 87.5419 411.511 91.8856C407.917 96.2294 402.886 98.4012 396.417 98.4012C389.917 98.4012 384.854 96.2294 381.229 91.8856C377.636 87.5106 375.839 81.4481 375.839 73.6981V70.4637ZM389.151 73.7919C389.151 82.8544 391.573 87.3856 396.417 87.3856C400.886 87.3856 403.292 83.6044 403.636 76.0419L403.682 70.4637C403.682 65.8387 403.042 62.4169 401.761 60.1981C400.479 57.9481 398.667 56.8231 396.323 56.8231C394.073 56.8231 392.307 57.9481 391.026 60.1981C389.776 62.4169 389.151 65.8387 389.151 70.4637V73.7919ZM423.604 70.5575C423.604 62.245 425.104 56.0419 428.104 51.9481C431.104 47.8544 435.307 45.8075 440.714 45.8075C445.307 45.8075 448.854 47.62 451.354 51.245L451.87 46.745H463.823V97.4637C463.823 103.932 462.011 108.87 458.386 112.276C454.761 115.714 449.557 117.432 442.776 117.432C439.995 117.432 437.073 116.87 434.011 115.745C430.948 114.651 428.667 113.245 427.167 111.526L431.62 102.339C432.87 103.651 434.495 104.714 436.495 105.526C438.495 106.37 440.386 106.792 442.167 106.792C445.136 106.792 447.261 106.073 448.542 104.636C449.854 103.229 450.526 100.948 450.557 97.7919V93.4325C448.026 96.745 444.729 98.4012 440.667 98.4012C435.261 98.4012 431.073 96.3075 428.104 92.12C425.167 87.9012 423.667 81.9637 423.604 74.3075V70.5575ZM436.87 73.8856C436.87 78.5731 437.479 81.995 438.698 84.1512C439.917 86.2762 441.854 87.3387 444.511 87.3387C447.229 87.3387 449.245 86.3544 450.557 84.3856V60.1512C449.182 57.995 447.198 56.9169 444.604 56.9169C441.979 56.9169 440.026 57.995 438.745 60.1512C437.495 62.3075 436.87 65.7762 436.87 70.5575V73.8856ZM498.511 59.5419L494.104 59.1669C490.479 59.1669 488.026 60.7606 486.745 63.9481V97.4637H473.432V46.745H485.948L486.323 52.2294C488.417 47.9481 491.307 45.8075 494.995 45.8075C496.495 45.8075 497.714 46.0106 498.651 46.4169L498.511 59.5419ZM524.901 98.4012C518.089 98.4012 512.776 96.37 508.964 92.3075C505.151 88.245 503.245 82.4325 503.245 74.87V70.8387C503.245 62.8387 504.995 56.6669 508.495 52.3231C511.995 47.9794 517.011 45.8075 523.542 45.8075C529.917 45.8075 534.714 47.8544 537.932 51.9481C541.151 56.0106 542.792 62.0419 542.854 70.0419V76.5575H516.464C516.651 80.3075 517.479 83.0575 518.948 84.8075C520.417 86.5262 522.682 87.3856 525.745 87.3856C530.182 87.3856 533.886 85.87 536.854 82.8387L542.057 90.8544C540.432 93.1044 538.073 94.9325 534.979 96.3387C531.886 97.7137 528.526 98.4012 524.901 98.4012ZM516.557 67.2762H529.823V66.0575C529.761 63.0262 529.261 60.7294 528.323 59.1669C527.386 57.6044 525.761 56.8231 523.448 56.8231C521.136 56.8231 519.448 57.6512 518.386 59.3075C517.354 60.9637 516.745 63.62 516.557 67.2762ZM572.807 83.87C572.807 82.745 572.261 81.7137 571.167 80.7762C570.104 79.8075 567.714 78.5106 563.995 76.8856C558.526 74.6669 554.761 72.37 552.698 69.995C550.667 67.62 549.651 64.6669 549.651 61.1356C549.651 56.6981 551.245 53.0419 554.432 50.1669C557.651 47.2606 561.901 45.8075 567.182 45.8075C572.745 45.8075 577.198 47.245 580.542 50.12C583.886 52.995 585.557 56.8544 585.557 61.6981H572.292C572.292 57.5731 570.573 55.5106 567.136 55.5106C565.729 55.5106 564.573 55.9481 563.667 56.8231C562.761 57.6981 562.307 58.9169 562.307 60.4794C562.307 61.6044 562.807 62.6044 563.807 63.4794C564.807 64.3231 567.167 65.5419 570.886 67.1356C576.292 69.1356 580.104 71.37 582.323 73.8387C584.573 76.2762 585.698 79.4481 585.698 83.3544C585.698 87.8856 583.995 91.5262 580.589 94.2762C577.182 97.0262 572.714 98.4012 567.182 98.4012C563.464 98.4012 560.182 97.6825 557.339 96.245C554.495 94.7762 552.261 92.745 550.636 90.1512C549.042 87.5575 548.245 84.7606 548.245 81.7606H560.854C560.917 84.0731 561.448 85.8075 562.448 86.9637C563.479 88.12 565.151 88.6981 567.464 88.6981C571.026 88.6981 572.807 87.0887 572.807 83.87ZM616.401 83.87C616.401 82.745 615.854 81.7137 614.761 80.7762C613.698 79.8075 611.307 78.5106 607.589 76.8856C602.12 74.6669 598.354 72.37 596.292 69.995C594.261 67.62 593.245 64.6669 593.245 61.1356C593.245 56.6981 594.839 53.0419 598.026 50.1669C601.245 47.2606 605.495 45.8075 610.776 45.8075C616.339 45.8075 620.792 47.245 624.136 50.12C627.479 52.995 629.151 56.8544 629.151 61.6981H615.886C615.886 57.5731 614.167 55.5106 610.729 55.5106C609.323 55.5106 608.167 55.9481 607.261 56.8231C606.354 57.6981 605.901 58.9169 605.901 60.4794C605.901 61.6044 606.401 62.6044 607.401 63.4794C608.401 64.3231 610.761 65.5419 614.479 67.1356C619.886 69.1356 623.698 71.37 625.917 73.8387C628.167 76.2762 629.292 79.4481 629.292 83.3544C629.292 87.8856 627.589 91.5262 624.182 94.2762C620.776 97.0262 616.307 98.4012 610.776 98.4012C607.057 98.4012 603.776 97.6825 600.932 96.245C598.089 94.7762 595.854 92.745 594.229 90.1512C592.636 87.5575 591.839 84.7606 591.839 81.7606H604.448C604.511 84.0731 605.042 85.8075 606.042 86.9637C607.073 88.12 608.745 88.6981 611.057 88.6981C614.62 88.6981 616.401 87.0887 616.401 83.87Z" fill="#5FCCC2"/>
<defs>
<linearGradient id="paint0_linear" x1="22.5" y1="107.167" x2="78.5" y2="50" gradientUnits="userSpaceOnUse">
<stop offset="0.0112957" stop-color="#00273F"/>
<stop offset="0.9999" stop-color="#5FCCC2"/>
<stop offset="1" stop-color="#5FCCC2"/>
</linearGradient>
</defs>
</svg>
