<svg width="600" height="774" viewBox="0 0 600 774" fill="none" xmlns="http://www.w3.org/2000/svg">
<path fill-rule="evenodd" clip-rule="evenodd" d="M300 0L421.244 150H345V540H255V150H178.756L300 0ZM185.5 265C200.25 265 213.895 260.269 225 252.242V326.991C171.575 354.302 135 409.88 135 474C135 565.127 208.873 639 300 639C391.127 639 465 565.127 465 474C465 409.88 428.425 354.302 375 326.991V252.242C386.105 260.269 399.75 265 414.5 265C440.186 265 462.521 250.653 473.929 229.535C501.178 248.957 525.043 272.822 544.465 300.071C523.347 311.479 509 333.814 509 359.5C509 396.779 539.221 427 576.5 427C583.237 427 589.743 426.013 595.882 424.176C598.59 440.381 600 457.026 600 474C600 490.974 598.59 507.619 595.882 523.824C589.743 521.987 583.237 521 576.5 521C539.221 521 509 551.221 509 588.5C509 614.186 523.347 636.521 544.465 647.929C525.043 675.178 501.178 699.043 473.929 718.465C462.521 697.347 440.186 683 414.5 683C377.221 683 347 713.221 347 750.5C347 757.237 347.987 763.743 349.824 769.882C333.619 772.59 316.974 774 300 774C283.026 774 266.381 772.59 250.176 769.882C252.013 763.743 253 757.237 253 750.5C253 713.221 222.779 683 185.5 683C159.814 683 137.479 697.347 126.071 718.465C98.8217 699.043 74.9573 675.178 55.5352 647.929C76.6529 636.521 91 614.186 91 588.5C91 551.221 60.7792 521 23.5 521C16.7634 521 10.2574 521.987 4.11844 523.824C1.40973 507.619 0 490.974 0 474C0 457.026 1.40973 440.381 4.11844 424.176C10.2574 426.013 16.7634 427 23.5 427C60.7792 427 91 396.779 91 359.5C91 333.814 76.6529 311.479 55.5352 300.071C74.9573 272.822 98.8217 248.957 126.071 229.535C137.479 250.653 159.814 265 185.5 265Z" fill="url(#paint0_linear)"/>
<defs>
<linearGradient id="paint0_linear" x1="135" y1="643" x2="471" y2="300" gradientUnits="userSpaceOnUse">
<stop offset="0.0112957" stop-color="#00273F"/>
<stop offset="0.9999" stop-color="#5FCCC2"/>
<stop offset="1" stop-color="#5FCCC2"/>
</linearGradient>
</defs>
</svg>
